<mxfile host="app.diagrams.net" modified="2021-08-21T19:22:08.143Z" agent="5.0 (Windows NT 10.0; Win64; x64) AppleWebKit/537.36 (KHTML, like Gecko) Chrome/92.0.4515.159 Safari/537.36" etag="BU3S7CZcAxXqkScTSnrl" version="14.9.8" type="github">
  <diagram id="Qf7yKoVHhFXMBKevomwK" name="Page-1">
    <mxGraphModel dx="1017" dy="582" grid="1" gridSize="10" guides="1" tooltips="1" connect="1" arrows="1" fold="1" page="1" pageScale="1" pageWidth="827" pageHeight="1169" math="0" shadow="0">
      <root>
        <mxCell id="0" />
        <mxCell id="1" parent="0" />
        <mxCell id="vCR84hO5KDaAhVIwtfO2-15" value="" style="edgeStyle=orthogonalEdgeStyle;rounded=0;orthogonalLoop=1;jettySize=auto;html=1;" edge="1" parent="1" source="vCR84hO5KDaAhVIwtfO2-3" target="vCR84hO5KDaAhVIwtfO2-11">
          <mxGeometry relative="1" as="geometry" />
        </mxCell>
        <mxCell id="vCR84hO5KDaAhVIwtfO2-3" value="data" style="html=1;strokeWidth=2;shape=manualInput;whiteSpace=wrap;rounded=1;size=26;arcSize=11;" vertex="1" parent="1">
          <mxGeometry x="90" y="255" width="100" height="60" as="geometry" />
        </mxCell>
        <mxCell id="vCR84hO5KDaAhVIwtfO2-9" value="" style="edgeStyle=orthogonalEdgeStyle;rounded=0;orthogonalLoop=1;jettySize=auto;html=1;" edge="1" parent="1" target="vCR84hO5KDaAhVIwtfO2-6">
          <mxGeometry relative="1" as="geometry">
            <mxPoint x="140" y="130" as="sourcePoint" />
          </mxGeometry>
        </mxCell>
        <mxCell id="vCR84hO5KDaAhVIwtfO2-5" value="inicio" style="strokeWidth=2;html=1;shape=mxgraph.flowchart.start_1;whiteSpace=wrap;" vertex="1" parent="1">
          <mxGeometry x="90" y="70" width="100" height="60" as="geometry" />
        </mxCell>
        <mxCell id="vCR84hO5KDaAhVIwtfO2-7" style="edgeStyle=orthogonalEdgeStyle;rounded=0;orthogonalLoop=1;jettySize=auto;html=1;" edge="1" parent="1" source="vCR84hO5KDaAhVIwtfO2-6">
          <mxGeometry relative="1" as="geometry">
            <mxPoint x="140" y="270" as="targetPoint" />
          </mxGeometry>
        </mxCell>
        <mxCell id="vCR84hO5KDaAhVIwtfO2-6" value="digite a data do evento" style="strokeWidth=2;html=1;shape=mxgraph.flowchart.display;whiteSpace=wrap;" vertex="1" parent="1">
          <mxGeometry x="90" y="160" width="100" height="60" as="geometry" />
        </mxCell>
        <mxCell id="vCR84hO5KDaAhVIwtfO2-17" value="" style="edgeStyle=orthogonalEdgeStyle;rounded=0;orthogonalLoop=1;jettySize=auto;html=1;" edge="1" parent="1" source="vCR84hO5KDaAhVIwtfO2-11" target="vCR84hO5KDaAhVIwtfO2-16">
          <mxGeometry relative="1" as="geometry" />
        </mxCell>
        <mxCell id="vCR84hO5KDaAhVIwtfO2-42" style="edgeStyle=orthogonalEdgeStyle;rounded=0;orthogonalLoop=1;jettySize=auto;html=1;" edge="1" parent="1" source="vCR84hO5KDaAhVIwtfO2-11">
          <mxGeometry relative="1" as="geometry">
            <mxPoint x="470" y="285" as="targetPoint" />
          </mxGeometry>
        </mxCell>
        <mxCell id="vCR84hO5KDaAhVIwtfO2-11" value="data do evento &amp;gt;&lt;br&gt;data atual" style="strokeWidth=2;html=1;shape=mxgraph.flowchart.decision;whiteSpace=wrap;" vertex="1" parent="1">
          <mxGeometry x="240" y="220" width="140" height="130" as="geometry" />
        </mxCell>
        <mxCell id="vCR84hO5KDaAhVIwtfO2-41" style="edgeStyle=orthogonalEdgeStyle;rounded=0;orthogonalLoop=1;jettySize=auto;html=1;" edge="1" parent="1" source="vCR84hO5KDaAhVIwtfO2-13" target="vCR84hO5KDaAhVIwtfO2-38">
          <mxGeometry relative="1" as="geometry" />
        </mxCell>
        <mxCell id="vCR84hO5KDaAhVIwtfO2-13" value="data invalida" style="strokeWidth=2;html=1;shape=mxgraph.flowchart.display;whiteSpace=wrap;" vertex="1" parent="1">
          <mxGeometry x="475" y="250" width="100" height="60" as="geometry" />
        </mxCell>
        <mxCell id="vCR84hO5KDaAhVIwtfO2-19" value="" style="edgeStyle=orthogonalEdgeStyle;rounded=0;orthogonalLoop=1;jettySize=auto;html=1;" edge="1" parent="1" source="vCR84hO5KDaAhVIwtfO2-16" target="vCR84hO5KDaAhVIwtfO2-18">
          <mxGeometry relative="1" as="geometry" />
        </mxCell>
        <mxCell id="vCR84hO5KDaAhVIwtfO2-16" value="evento X" style="strokeWidth=2;html=1;shape=mxgraph.flowchart.display;whiteSpace=wrap;" vertex="1" parent="1">
          <mxGeometry x="260" y="410" width="100" height="60" as="geometry" />
        </mxCell>
        <mxCell id="vCR84hO5KDaAhVIwtfO2-21" value="" style="edgeStyle=orthogonalEdgeStyle;rounded=0;orthogonalLoop=1;jettySize=auto;html=1;" edge="1" parent="1" source="vCR84hO5KDaAhVIwtfO2-18" target="vCR84hO5KDaAhVIwtfO2-20">
          <mxGeometry relative="1" as="geometry" />
        </mxCell>
        <mxCell id="vCR84hO5KDaAhVIwtfO2-18" value="digite seu nome" style="strokeWidth=2;html=1;shape=mxgraph.flowchart.display;whiteSpace=wrap;" vertex="1" parent="1">
          <mxGeometry x="100" y="410" width="100" height="60" as="geometry" />
        </mxCell>
        <mxCell id="vCR84hO5KDaAhVIwtfO2-23" value="" style="edgeStyle=orthogonalEdgeStyle;rounded=0;orthogonalLoop=1;jettySize=auto;html=1;" edge="1" parent="1" source="vCR84hO5KDaAhVIwtfO2-20" target="vCR84hO5KDaAhVIwtfO2-22">
          <mxGeometry relative="1" as="geometry" />
        </mxCell>
        <mxCell id="vCR84hO5KDaAhVIwtfO2-20" value="nome do participante" style="html=1;strokeWidth=2;shape=manualInput;whiteSpace=wrap;rounded=1;size=26;arcSize=11;" vertex="1" parent="1">
          <mxGeometry x="100" y="510" width="100" height="60" as="geometry" />
        </mxCell>
        <mxCell id="vCR84hO5KDaAhVIwtfO2-25" value="" style="edgeStyle=orthogonalEdgeStyle;rounded=0;orthogonalLoop=1;jettySize=auto;html=1;" edge="1" parent="1" source="vCR84hO5KDaAhVIwtfO2-22" target="vCR84hO5KDaAhVIwtfO2-24">
          <mxGeometry relative="1" as="geometry" />
        </mxCell>
        <mxCell id="vCR84hO5KDaAhVIwtfO2-22" value="digite sua idade" style="strokeWidth=2;html=1;shape=mxgraph.flowchart.display;whiteSpace=wrap;" vertex="1" parent="1">
          <mxGeometry x="100" y="615" width="100" height="60" as="geometry" />
        </mxCell>
        <mxCell id="vCR84hO5KDaAhVIwtfO2-27" value="" style="edgeStyle=orthogonalEdgeStyle;rounded=0;orthogonalLoop=1;jettySize=auto;html=1;" edge="1" parent="1" source="vCR84hO5KDaAhVIwtfO2-24" target="vCR84hO5KDaAhVIwtfO2-26">
          <mxGeometry relative="1" as="geometry" />
        </mxCell>
        <mxCell id="vCR84hO5KDaAhVIwtfO2-24" value="idade" style="html=1;strokeWidth=2;shape=manualInput;whiteSpace=wrap;rounded=1;size=26;arcSize=11;align=center;verticalAlign=middle;" vertex="1" parent="1">
          <mxGeometry x="270" y="615" width="100" height="60" as="geometry" />
        </mxCell>
        <mxCell id="vCR84hO5KDaAhVIwtfO2-28" style="edgeStyle=orthogonalEdgeStyle;rounded=0;orthogonalLoop=1;jettySize=auto;html=1;" edge="1" parent="1" source="vCR84hO5KDaAhVIwtfO2-26">
          <mxGeometry relative="1" as="geometry">
            <mxPoint x="660" y="625" as="targetPoint" />
          </mxGeometry>
        </mxCell>
        <mxCell id="vCR84hO5KDaAhVIwtfO2-33" value="" style="edgeStyle=orthogonalEdgeStyle;rounded=0;orthogonalLoop=1;jettySize=auto;html=1;" edge="1" parent="1" source="vCR84hO5KDaAhVIwtfO2-26" target="vCR84hO5KDaAhVIwtfO2-32">
          <mxGeometry relative="1" as="geometry" />
        </mxCell>
        <mxCell id="vCR84hO5KDaAhVIwtfO2-26" value="idade &amp;gt;=18" style="rhombus;whiteSpace=wrap;html=1;rounded=1;strokeWidth=2;arcSize=11;" vertex="1" parent="1">
          <mxGeometry x="460" y="570" width="130" height="110" as="geometry" />
        </mxCell>
        <mxCell id="vCR84hO5KDaAhVIwtfO2-40" style="edgeStyle=orthogonalEdgeStyle;rounded=0;orthogonalLoop=1;jettySize=auto;html=1;entryX=0.32;entryY=0;entryDx=0;entryDy=0;entryPerimeter=0;" edge="1" parent="1" source="vCR84hO5KDaAhVIwtfO2-29" target="vCR84hO5KDaAhVIwtfO2-38">
          <mxGeometry relative="1" as="geometry" />
        </mxCell>
        <mxCell id="vCR84hO5KDaAhVIwtfO2-29" value="idade nao permitida" style="strokeWidth=2;html=1;shape=mxgraph.flowchart.display;whiteSpace=wrap;" vertex="1" parent="1">
          <mxGeometry x="670" y="595" width="100" height="60" as="geometry" />
        </mxCell>
        <mxCell id="vCR84hO5KDaAhVIwtfO2-35" style="edgeStyle=orthogonalEdgeStyle;rounded=0;orthogonalLoop=1;jettySize=auto;html=1;" edge="1" parent="1" source="vCR84hO5KDaAhVIwtfO2-32">
          <mxGeometry relative="1" as="geometry">
            <mxPoint x="300" y="795" as="targetPoint" />
          </mxGeometry>
        </mxCell>
        <mxCell id="vCR84hO5KDaAhVIwtfO2-52" style="edgeStyle=orthogonalEdgeStyle;rounded=0;orthogonalLoop=1;jettySize=auto;html=1;entryX=0;entryY=0.5;entryDx=0;entryDy=0;entryPerimeter=0;" edge="1" parent="1" source="vCR84hO5KDaAhVIwtfO2-32" target="vCR84hO5KDaAhVIwtfO2-50">
          <mxGeometry relative="1" as="geometry" />
        </mxCell>
        <mxCell id="vCR84hO5KDaAhVIwtfO2-32" value="numero de participantes &amp;lt;100" style="rhombus;whiteSpace=wrap;html=1;rounded=1;strokeWidth=2;arcSize=11;" vertex="1" parent="1">
          <mxGeometry x="426.25" y="740" width="197.5" height="110" as="geometry" />
        </mxCell>
        <mxCell id="vCR84hO5KDaAhVIwtfO2-37" value="" style="edgeStyle=orthogonalEdgeStyle;rounded=0;orthogonalLoop=1;jettySize=auto;html=1;" edge="1" parent="1" source="vCR84hO5KDaAhVIwtfO2-34" target="vCR84hO5KDaAhVIwtfO2-36">
          <mxGeometry relative="1" as="geometry" />
        </mxCell>
        <mxCell id="vCR84hO5KDaAhVIwtfO2-34" value="participantes&lt;br&gt;&amp;nbsp;e&amp;nbsp;&lt;br&gt;palestrantes" style="strokeWidth=2;html=1;shape=mxgraph.flowchart.display;whiteSpace=wrap;" vertex="1" parent="1">
          <mxGeometry x="120" y="770" width="180" height="70" as="geometry" />
        </mxCell>
        <mxCell id="vCR84hO5KDaAhVIwtfO2-44" style="edgeStyle=orthogonalEdgeStyle;rounded=0;orthogonalLoop=1;jettySize=auto;html=1;entryX=-0.02;entryY=0.667;entryDx=0;entryDy=0;entryPerimeter=0;" edge="1" parent="1" source="vCR84hO5KDaAhVIwtfO2-36" target="vCR84hO5KDaAhVIwtfO2-38">
          <mxGeometry relative="1" as="geometry" />
        </mxCell>
        <mxCell id="vCR84hO5KDaAhVIwtfO2-36" value="cadastro realizado!" style="strokeWidth=2;html=1;shape=mxgraph.flowchart.display;whiteSpace=wrap;" vertex="1" parent="1">
          <mxGeometry x="135" y="940" width="150" height="60" as="geometry" />
        </mxCell>
        <mxCell id="vCR84hO5KDaAhVIwtfO2-38" value="FIM" style="strokeWidth=2;html=1;shape=mxgraph.flowchart.start_1;whiteSpace=wrap;" vertex="1" parent="1">
          <mxGeometry x="770" y="930" width="100" height="60" as="geometry" />
        </mxCell>
        <mxCell id="vCR84hO5KDaAhVIwtfO2-45" value="SIM" style="text;html=1;strokeColor=none;fillColor=none;align=center;verticalAlign=middle;whiteSpace=wrap;rounded=0;fontStyle=1" vertex="1" parent="1">
          <mxGeometry x="310" y="360" width="40" height="20" as="geometry" />
        </mxCell>
        <mxCell id="vCR84hO5KDaAhVIwtfO2-46" value="NAO" style="text;html=1;strokeColor=none;fillColor=none;align=center;verticalAlign=middle;whiteSpace=wrap;rounded=0;fontStyle=1" vertex="1" parent="1">
          <mxGeometry x="600" y="595" width="40" height="20" as="geometry" />
        </mxCell>
        <mxCell id="vCR84hO5KDaAhVIwtfO2-48" value="NAO" style="text;html=1;strokeColor=none;fillColor=none;align=center;verticalAlign=middle;whiteSpace=wrap;rounded=0;fontStyle=1" vertex="1" parent="1">
          <mxGeometry x="400" y="260" width="40" height="20" as="geometry" />
        </mxCell>
        <mxCell id="vCR84hO5KDaAhVIwtfO2-49" value="SIM" style="text;html=1;strokeColor=none;fillColor=none;align=center;verticalAlign=middle;whiteSpace=wrap;rounded=0;fontStyle=1" vertex="1" parent="1">
          <mxGeometry x="520" y="700" width="40" height="20" as="geometry" />
        </mxCell>
        <mxCell id="vCR84hO5KDaAhVIwtfO2-53" style="edgeStyle=orthogonalEdgeStyle;rounded=0;orthogonalLoop=1;jettySize=auto;html=1;entryX=0.145;entryY=0.145;entryDx=0;entryDy=0;entryPerimeter=0;" edge="1" parent="1" source="vCR84hO5KDaAhVIwtfO2-50" target="vCR84hO5KDaAhVIwtfO2-38">
          <mxGeometry relative="1" as="geometry" />
        </mxCell>
        <mxCell id="vCR84hO5KDaAhVIwtfO2-50" value="Nao a vagas disponiveis" style="strokeWidth=2;html=1;shape=mxgraph.flowchart.display;whiteSpace=wrap;" vertex="1" parent="1">
          <mxGeometry x="600" y="850" width="100" height="60" as="geometry" />
        </mxCell>
        <mxCell id="vCR84hO5KDaAhVIwtfO2-54" value="NAO" style="text;html=1;strokeColor=none;fillColor=none;align=center;verticalAlign=middle;whiteSpace=wrap;rounded=0;fontStyle=1" vertex="1" parent="1">
          <mxGeometry x="540" y="860" width="40" height="20" as="geometry" />
        </mxCell>
        <mxCell id="vCR84hO5KDaAhVIwtfO2-55" value="SIM" style="text;html=1;strokeColor=none;fillColor=none;align=center;verticalAlign=middle;whiteSpace=wrap;rounded=0;fontStyle=1" vertex="1" parent="1">
          <mxGeometry x="350" y="770" width="40" height="20" as="geometry" />
        </mxCell>
      </root>
    </mxGraphModel>
  </diagram>
</mxfile>
